<svg width="96" height="97" xmlns="http://www.w3.org/2000/svg" xmlns:xlink="http://www.w3.org/1999/xlink" xml:space="preserve" overflow="hidden"><g transform="translate(-544 -601)"><g><g><g><g><path d="M591.979 612C571.004 612 554 629.004 554 649.979 554 670.954 571.004 687.958 591.979 687.958 612.954 687.958 629.958 670.954 629.958 649.979 629.958 649.978 629.958 649.977 629.958 649.976 629.965 629.01 612.974 612.007 592.008 612 591.998 612 591.989 612 591.979 612ZM601.179 651.793C595.646 657.316 590.079 662.889 584.479 668.51 579.72 663.729 574.95 658.959 570.169 654.2L574.95 649.419 584.479 658.948C589.105 654.255 593.705 649.596 598.279 644.969 602.85 640.343 605.379 637.86 610.12 633.278 610.253 633.145 610.396 633.013 610.551 632.878 610.701 632.751 610.836 632.606 610.951 632.446L615.799 637.227C610.168 642.827 606.712 646.267 601.178 651.79Z" fill="#000000" fill-rule="nonzero" fill-opacity="1"/></g></g></g></g></g></svg>