<svg width="20" height="20" xmlns="http://www.w3.org/2000/svg" xmlns:xlink="http://www.w3.org/1999/xlink" xml:space="preserve" overflow="hidden"><g transform="translate(-296 -305)"><g><g><g><g><path d="M313.361 311.882C312.767 311.882 312.293 312.961 312.293 313.861 312.293 314.409 312.471 314.772 312.742 314.966 312.885 315.056 312.989 315.197 313.033 315.361L312.908 319.595C312.925 319.848 313.143 320.04 313.396 320.023 313.626 320.008 313.809 319.825 313.824 319.595L313.7 315.361C313.743 315.197 313.848 315.056 313.993 314.966 314.262 314.768 314.44 314.409 314.44 313.861 314.428 312.961 313.953 311.882 313.361 311.882Z" fill="#000000" fill-rule="nonzero" fill-opacity="1"/><path d="M298.818 311.882 298.62 311.882 298.62 314.059C298.62 314.123 298.569 314.174 298.506 314.174 298.442 314.174 298.391 314.123 298.391 314.059L298.391 311.882 298.092 311.882 298.092 314.059C298.092 314.123 298.041 314.174 297.977 314.174 297.914 314.174 297.862 314.123 297.862 314.059L297.862 311.882 297.558 311.882 297.558 314.059C297.558 314.123 297.506 314.174 297.443 314.174 297.379 314.174 297.328 314.123 297.328 314.059L297.328 311.882 297.13 311.882C296.995 312.534 296.918 313.196 296.901 313.861 296.901 314.411 297.079 314.774 297.348 314.968 297.492 315.058 297.596 315.199 297.641 315.363L297.524 319.593C297.524 319.846 297.73 320.052 297.983 320.052 298.237 320.052 298.442 319.846 298.442 319.593L298.318 315.356C298.361 315.192 298.465 315.05 298.609 314.96 298.88 314.762 299.058 314.404 299.058 313.853 299.027 313.191 298.947 312.532 298.818 311.882Z" fill="#000000" fill-rule="nonzero" fill-opacity="1"/><path d="M311.752 315.68 311.752 311.098C311.755 310.909 311.605 310.753 311.416 310.75 311.413 310.75 311.41 310.75 311.408 310.75 311.408 310.75 310.814 310.772 310.717 312.44L310.547 315.403C310.547 315.553 310.899 315.674 311.032 315.724L310.858 319.538C310.875 319.821 311.119 320.037 311.403 320.019 311.662 320.003 311.869 319.797 311.885 319.538Z" fill="#000000" fill-rule="nonzero" fill-opacity="1"/><path d="M304.708 309.958C301.757 309.958 299.365 312.351 299.365 315.302 299.365 318.253 301.757 320.646 304.708 320.646 307.66 320.646 310.052 318.253 310.052 315.302 310.052 312.351 307.66 309.958 304.708 309.958ZM304.708 319.458C302.413 319.458 300.552 317.598 300.552 315.302 300.552 313.007 302.413 311.146 304.708 311.146 307.004 311.146 308.865 313.007 308.865 315.302 308.865 317.598 307.004 319.458 304.708 319.458Z" fill="#000000" fill-rule="nonzero" fill-opacity="1"/><path d="M308.271 315.302C308.271 317.27 306.676 318.865 304.708 318.865 302.741 318.865 301.146 317.27 301.146 315.302 301.146 313.335 302.741 311.74 304.708 311.74 306.676 311.74 308.271 313.335 308.271 315.302Z" fill="#000000" fill-rule="nonzero" fill-opacity="1"/></g></g></g></g></g></svg>