<svg width="20" height="20" xmlns="http://www.w3.org/2000/svg" xmlns:xlink="http://www.w3.org/1999/xlink" xml:space="preserve" overflow="hidden"><g transform="translate(-296 -193)"><g><g><g><g><path d="M312.23 201.125C312.232 199.705 311.082 198.553 309.662 198.552 309.081 198.552 308.517 198.748 308.062 199.109 307.933 197.694 306.681 196.652 305.267 196.782 304.032 196.895 303.053 197.873 302.94 199.109 301.827 198.227 300.21 198.414 299.328 199.527 298.446 200.64 298.633 202.257 299.746 203.139 300.148 203.458 300.636 203.649 301.147 203.688L301.147 207.854 309.855 207.854 309.855 203.688C311.195 203.585 312.23 202.469 312.23 201.125Z" fill="#000000" fill-rule="nonzero" fill-opacity="1"/><path d="M301.147 208.646 309.855 208.646 309.855 210.229 301.147 210.229Z" fill="#000000" fill-rule="nonzero" fill-opacity="1"/></g></g></g></g></g></svg>