<svg width="20" height="20" xmlns="http://www.w3.org/2000/svg" xmlns:xlink="http://www.w3.org/1999/xlink" xml:space="preserve" overflow="hidden"><g transform="translate(-296 -266)"><g><g><g><g><path d="M308.667 272.938C308.667 274.686 307.249 276.104 305.5 276.104 303.751 276.104 302.333 274.686 302.333 272.938 302.333 271.189 303.751 269.771 305.5 269.771 307.249 269.771 308.667 271.189 308.667 272.938Z" fill="#000000" fill-rule="nonzero" fill-opacity="1"/><path d="M311.833 283.229 311.833 280.062C311.833 279.587 311.596 279.112 311.2 278.796 310.329 278.083 309.221 277.608 308.112 277.292 307.321 277.054 306.45 276.896 305.5 276.896 304.629 276.896 303.758 277.054 302.888 277.292 301.779 277.608 300.671 278.163 299.8 278.796 299.404 279.112 299.167 279.587 299.167 280.062L299.167 283.229 311.833 283.229Z" fill="#000000" fill-rule="nonzero" fill-opacity="1"/></g></g></g></g></g></svg>