<svg width="12" height="12" xmlns="http://www.w3.org/2000/svg" xmlns:xlink="http://www.w3.org/1999/xlink" xml:space="preserve" overflow="hidden"><g transform="translate(-682 -352)"><g><g><g><g><path d="M690.093 359.15C690.986 358.291 691.032 356.87 690.184 355.953 691.09 356.423 691.834 357.145 692.27 357.626 691.811 358.073 691.032 358.737 690.093 359.15ZM685.59 356.79C685.968 356.469 686.369 356.194 686.804 355.965 685.968 356.881 686.014 358.291 686.907 359.15 685.968 358.737 685.177 358.073 684.73 357.626 684.994 357.328 685.28 357.053 685.59 356.79ZM688.5 359.333C687.492 359.333 686.667 358.508 686.667 357.5 686.667 356.492 687.492 355.667 688.5 355.667 689.508 355.667 690.333 356.492 690.333 357.5 690.333 358.508 689.508 359.333 688.5 359.333ZM692.957 357.305C692.293 356.526 690.551 354.75 688.5 354.75 686.449 354.75 684.707 356.526 684.043 357.305 683.871 357.511 683.882 357.798 684.066 357.993 684.742 358.703 686.472 360.25 688.5 360.25 690.528 360.25 692.258 358.703 692.946 357.993 693.118 357.809 693.129 357.511 692.957 357.305Z" fill="#A6A6A6" fill-rule="nonzero" fill-opacity="1"/><path d="M689.646 357.5C689.646 358.133 689.133 358.646 688.5 358.646 687.867 358.646 687.354 358.133 687.354 357.5 687.354 356.867 687.867 356.354 688.5 356.354 689.133 356.354 689.646 356.867 689.646 357.5Z" fill="#A6A6A6" fill-rule="nonzero" fill-opacity="1"/></g></g></g></g></g></svg>