<svg width="36" height="38" xmlns="http://www.w3.org/2000/svg" xmlns:xlink="http://www.w3.org/1999/xlink" xml:space="preserve" overflow="hidden"><g transform="translate(-740 -298)"><g><g><g><g><path d="M9.84375 6.92708 9.84375 9.84375 6.92708 9.84375 6.92708 6.92708 9.84375 6.92708ZM12.0312 4.73958 4.73958 4.73958 4.73958 12.0312 12.0312 12.0312 12.0312 4.73958Z" fill="#000000" fill-rule="nonzero" fill-opacity="1" transform="matrix(1 0 0 1.02857 741 299)"/><path d="M9.84375 25.1562 9.84375 28.0729 6.92708 28.0729 6.92708 25.1562 9.84375 25.1562ZM12.0312 22.9688 4.73958 22.9688 4.73958 30.2604 12.0312 30.2604 12.0312 22.9688Z" fill="#000000" fill-rule="nonzero" fill-opacity="1" transform="matrix(1 0 0 1.02857 741 299)"/><path d="M28.0729 6.92708 28.0729 9.84375 25.1562 9.84375 25.1562 6.92708 28.0729 6.92708ZM30.2604 4.73958 22.9688 4.73958 22.9688 12.0312 30.2604 12.0312 30.2604 4.73958Z" fill="#000000" fill-rule="nonzero" fill-opacity="1" transform="matrix(1 0 0 1.02857 741 299)"/><path d="M16.4062 16.4062 9.11458 16.4062 9.11458 14.2188 14.2188 14.2188 14.2188 4.73958 20.7812 4.73958 20.7812 6.92708 16.4062 6.92708Z" fill="#000000" fill-rule="nonzero" fill-opacity="1" transform="matrix(1 0 0 1.02857 741 299)"/><path d="M18.5938 9.11458 20.7812 9.11458 20.7812 12.0312 18.5938 12.0312Z" fill="#000000" fill-rule="nonzero" fill-opacity="1" transform="matrix(1 0 0 1.02857 741 299)"/><path d="M18.2292 25.1562 14.2188 25.1562 14.2188 18.5938 18.5938 18.5938 18.5938 14.2188 25.1562 14.2188 25.1562 18.5938 30.2604 18.5938 30.2604 20.7812 22.9688 20.7812 22.9688 16.4062 20.7812 16.4062 20.7812 20.7812 16.4062 20.7812 16.4062 22.9688 18.2292 22.9688Z" fill="#000000" fill-rule="nonzero" fill-opacity="1" transform="matrix(1 0 0 1.02857 741 299)"/><path d="M12.0312 20.7812 4.73958 20.7812 4.73958 14.2188 6.92708 14.2188 6.92708 18.5938 12.0312 18.5938Z" fill="#000000" fill-rule="nonzero" fill-opacity="1" transform="matrix(1 0 0 1.02857 741 299)"/><path d="M22.9688 30.2604 14.2188 30.2604 14.2188 28.0729 20.7812 28.0729 20.7812 22.9688 22.9688 22.9688Z" fill="#000000" fill-rule="nonzero" fill-opacity="1" transform="matrix(1 0 0 1.02857 741 299)"/><path d="M27.3438 14.2188 30.2604 14.2188 30.2604 16.4062 27.3438 16.4062Z" fill="#000000" fill-rule="nonzero" fill-opacity="1" transform="matrix(1 0 0 1.02857 741 299)"/><path d="M30.2604 30.2604 25.1562 30.2604 25.1562 22.9688 30.2604 22.9688 30.2604 25.1562 27.3438 25.1562 27.3438 28.0729 30.2604 28.0729Z" fill="#000000" fill-rule="nonzero" fill-opacity="1" transform="matrix(1 0 0 1.02857 741 299)"/></g></g></g></g></g></svg>