<svg width="97" height="97" xmlns="http://www.w3.org/2000/svg" xmlns:xlink="http://www.w3.org/1999/xlink" xml:space="preserve" overflow="hidden"><g transform="translate(-1049 -305)"><g><g><g><g><path d="M1098 379C1088 379 1080 371 1080 361 1080 351 1088 343 1098 343 1108 343 1116 351 1116 361 1116 371 1108 379 1098 379ZM1078 347 1066 347 1066 339 1078 339 1078 347ZM1134 331 1114 331 1108 321 1088 321 1082 331 1062 331C1059.8 331 1058 332.8 1058 335L1058 383C1058 385.2 1059.8 387 1062 387L1134 387C1136.2 387 1138 385.2 1138 383L1138 335C1138 332.8 1136.2 331 1134 331Z" fill="#000000" fill-rule="nonzero" fill-opacity="1"/><path d="M1098 351C1092.4 351 1088 355.4 1088 361 1088 366.6 1092.4 371 1098 371 1103.6 371 1108 366.6 1108 361 1108 355.4 1103.6 351 1098 351ZM1098 375C1090.2 375 1084 368.8 1084 361 1084 353.2 1090.2 347 1098 347 1105.8 347 1112 353.2 1112 361 1112 368.8 1105.8 375 1098 375Z" fill="#000000" fill-rule="nonzero" fill-opacity="1"/></g></g></g></g></g></svg>