<svg width="27" height="28" xmlns="http://www.w3.org/2000/svg" xmlns:xlink="http://www.w3.org/1999/xlink" xml:space="preserve" overflow="hidden"><g transform="translate(-754 -404)"><g><g><g><g><path d="M767.996 407.708C762.315 407.708 757.71 412.314 757.71 417.994 757.71 423.675 762.315 428.28 767.996 428.28 773.677 428.28 778.282 423.675 778.282 417.994 778.282 417.994 778.282 417.994 778.282 417.993 778.284 412.315 773.683 407.71 768.004 407.708 768.002 407.708 767.999 407.708 767.996 407.708ZM773.039 418.91 768.912 418.91 768.912 423.036 767.081 423.036 767.081 418.909 762.954 418.909 762.954 417.078 767.081 417.078 767.081 412.951 768.912 412.951 768.912 417.078 773.039 417.078Z" fill="#000000" fill-rule="nonzero" fill-opacity="1"/></g></g></g></g></g></svg>