<svg width="97" height="97" xmlns="http://www.w3.org/2000/svg" xmlns:xlink="http://www.w3.org/1999/xlink" xml:space="preserve" overflow="hidden"><g transform="translate(-661 -664)"><g><g><g><g><path d="M748 736 745 739 676 739 672 735 672 715 676 711 745 711 748 714 748 736ZM666 705 666 745 754 745 754 705 666 705Z" fill="#000000" fill-rule="nonzero" fill-opacity="1"/><path d="M718 725C718 730.523 714.418 735 710 735 705.582 735 702 730.523 702 725 702 719.477 705.582 715 710 715 714.418 715 718 719.477 718 725Z" fill="#000000" fill-rule="nonzero" fill-opacity="1"/><path d="M688 725C688 726.657 686.657 728 685 728 683.343 728 682 726.657 682 725 682 723.343 683.343 722 685 722 686.657 722 688 723.343 688 725Z" fill="#000000" fill-rule="nonzero" fill-opacity="1"/><path d="M738 725C738 726.657 736.657 728 735 728 733.343 728 732 726.657 732 725 732 723.343 733.343 722 735 722 736.657 722 738 723.343 738 725Z" fill="#000000" fill-rule="nonzero" fill-opacity="1"/><path d="M727.9 685.7 729.4 689.5 735.4 688.3 731.2 677.8 677.4 699.8 708.2 693.7Z" fill="#000000" fill-rule="nonzero" fill-opacity="1"/><path d="M722.7 701 738.5 697.9 739.2 701 745.3 701 743.3 690.8 692 701Z" fill="#000000" fill-rule="nonzero" fill-opacity="1"/></g></g></g></g></g></svg>