<svg width="44" height="44" xmlns="http://www.w3.org/2000/svg" xmlns:xlink="http://www.w3.org/1999/xlink" xml:space="preserve" overflow="hidden"><g transform="translate(-496 -325)"><g><g><g><g><path d="M24.5 4.8125C24.5 6.7455 22.933 8.3125 21 8.3125 19.067 8.3125 17.5 6.7455 17.5 4.8125 17.5 2.8795 19.067 1.3125 21 1.3125 22.933 1.3125 24.5 2.8795 24.5 4.8125Z" fill="#000000" fill-rule="nonzero" fill-opacity="1" transform="matrix(1 0 0 1.02381 497 326)"/><path d="M30.5375 22.8375 28.0875 12.425C28 12.075 27.825 11.725 27.5625 11.4625 26.5125 10.5875 25.2875 9.975 23.8875 9.5375 22.925 9.3625 21.9625 9.1875 21 9.1875 20.0375 9.1875 19.075 9.3625 18.1125 9.625 16.7125 9.975 15.4875 10.675 14.4375 11.55 14.175 11.8125 14 12.1625 13.9125 12.5125L11.4625 22.925C11.4625 23.0125 11.375 23.1875 11.375 23.3625 11.375 24.325 12.1625 25.1125 13.125 25.1125 13.9125 25.1125 14.6125 24.5 14.7875 23.8L16.625 16.1875 16.625 40.6875 20.125 40.6875 20.125 24.9375 21.875 24.9375 21.875 40.6875 25.375 40.6875 25.375 16.1 27.2125 23.7125C27.3875 24.4125 28.0875 25.025 28.875 25.025 29.8375 25.025 30.625 24.2375 30.625 23.275 30.625 23.1 30.5375 22.925 30.5375 22.8375Z" fill="#000000" fill-rule="nonzero" fill-opacity="1" transform="matrix(1 0 0 1.02381 497 326)"/></g></g></g></g></g></svg>