<svg width="44" height="43" xmlns="http://www.w3.org/2000/svg" xmlns:xlink="http://www.w3.org/1999/xlink" xml:space="preserve" overflow="hidden"><g transform="translate(-496 -398)"><g><g><g><g><path d="M527.406 403.375C527.406 401.441 526.037 399.875 524.344 399.875 522.651 399.875 521.281 401.441 521.281 403.375 521.281 405.125 522.686 407.242 523.906 407.667 523.904 407.695 523.904 407.722 523.906 407.75 523.879 408.827 524.027 409.901 524.344 410.931 524.648 411.882 524.796 412.876 524.781 413.875 524.796 414.874 524.648 415.868 524.344 416.819 524.252 417.134 524.16 417.458 524.086 417.839 523.817 417.886 523.57 418.018 523.381 418.215L518.722 423.062 515.716 423.062C513.664 423.216 511.932 424.843 511.516 425.906 511.411 426.182 510.151 429.152 509.329 431.082 509.047 431.749 509.358 432.518 510.024 432.801 510.186 432.872 510.36 432.908 510.536 432.906 511.062 432.907 511.537 432.593 511.744 432.11L513.188 428.719 513.188 440.125 515.812 440.125 515.812 432.25 517.125 432.25 517.125 440.125 519.75 440.125 519.75 425.779 525.289 420.035C525.791 419.513 525.775 418.683 525.254 418.18 525.167 418.099 525.07 418.03 524.965 417.974 525.035 417.646 525.118 417.353 525.201 417.056 525.518 416.026 525.666 414.952 525.639 413.875 525.666 412.798 525.518 411.724 525.201 410.694 524.897 409.743 524.749 408.749 524.764 407.75 524.766 407.722 524.766 407.695 524.764 407.667 526.002 407.242 527.406 405.125 527.406 403.375Z" fill="#000000" fill-rule="nonzero" fill-opacity="1"/><path d="M519.75 418.906C519.75 420.718 518.281 422.188 516.469 422.188 514.657 422.188 513.188 420.718 513.188 418.906 513.188 417.094 514.657 415.625 516.469 415.625 518.281 415.625 519.75 417.094 519.75 418.906Z" fill="#000000" fill-rule="nonzero" fill-opacity="1"/></g></g></g></g></g></svg>