<svg width="96" height="97" xmlns="http://www.w3.org/2000/svg" xmlns:xlink="http://www.w3.org/1999/xlink" xml:space="preserve" overflow="hidden"><g transform="translate(-852 -633)"><g><g><g><g><path d="M928 652C928 656.418 915.464 660 900 660 884.536 660 872 656.418 872 652 872 647.582 884.536 644 900 644 915.464 644 928 647.582 928 652Z" fill="#000000" fill-rule="nonzero" fill-opacity="1"/><path d="M920 672C918.8 672 918 671.2 918 670 918 668.8 918.8 668 920 668 921.2 668 922 668.8 922 670 922 671.2 921.2 672 920 672ZM900 664C884.6 664 872 660.4 872 656L872 672C872 676.4 884.6 680 900 680 915.4 680 928 676.4 928 672L928 656C928 660.4 915.4 664 900 664Z" fill="#000000" fill-rule="nonzero" fill-opacity="1"/><path d="M920 692C918.8 692 918 691.2 918 690 918 688.8 918.8 688 920 688 921.2 688 922 688.8 922 690 922 691.2 921.2 692 920 692ZM900 684C884.6 684 872 680.4 872 676L872 692C872 696.4 884.6 700 900 700 915.4 700 928 696.4 928 692L928 676C928 680.4 915.4 684 900 684Z" fill="#000000" fill-rule="nonzero" fill-opacity="1"/><path d="M920 712C918.8 712 918 711.2 918 710 918 708.8 918.8 708 920 708 921.2 708 922 708.8 922 710 922 711.2 921.2 712 920 712ZM900 704C884.6 704 872 700.4 872 696L872 712C872 716.4 884.6 720 900 720 915.4 720 928 716.4 928 712L928 696C928 700.4 915.4 704 900 704Z" fill="#000000" fill-rule="nonzero" fill-opacity="1"/></g></g></g></g></g></svg>