<svg width="97" height="97" xmlns="http://www.w3.org/2000/svg" xmlns:xlink="http://www.w3.org/1999/xlink" xml:space="preserve" overflow="hidden"><g transform="translate(-597 -637)"><g><g><g><g><path d="M629 669 618 669 618 662 629 662 629 669ZM644 662 644 669 633 669 633 662 644 662ZM659 662 659 669 648 669 648 662 659 662ZM674 662 674 669 663 669 663 662 674 662ZM674 680 663 680 663 673 674 673 674 680ZM674 688.5 663 689.5 663 684 674 684 674 688.5ZM629 684 629 692.5 618 693.5 618 684 629 684ZM629 680 618 680 618 673 629 673 629 680ZM644 680 633 680 633 673 644 673 644 680ZM648 680 648 673 659 673 659 680 648 680ZM644 691.2 633 692.2 633 684 644 684 644 691.2ZM648 684 659 684 659 689.8 648 690.8 648 684ZM680 694 680 656 618 656 618 655C618 650 614 646 609 646 607.3 646 606 647.3 606 649 606 650.7 607.3 652 609 652 610.7 652 612 653.3 612 655L612 705C612 710 616 714 621 714L624 714 668 714 677 714C678.7 714 680 712.7 680 711 680 709.3 678.7 708 677 708L621 708C619.3 708 618 706.7 618 705L618 699.5 680 694Z" fill="#000000" fill-rule="nonzero" fill-opacity="1"/><path d="M630 720C630 723.314 627.314 726 624 726 620.686 726 618 723.314 618 720 618 716.686 620.686 714 624 714 627.314 714 630 716.686 630 720Z" fill="#000000" fill-rule="nonzero" fill-opacity="1"/><path d="M674 720C674 723.314 671.314 726 668 726 664.686 726 662 723.314 662 720 662 716.686 664.686 714 668 714 671.314 714 674 716.686 674 720Z" fill="#000000" fill-rule="nonzero" fill-opacity="1"/></g></g></g></g></g></svg>